<?xml version="1.0" encoding="UTF-8"?>
<svg width="800px" height="600px" viewBox="0 0 800 600" version="1.1" xmlns="http://www.w3.org/2000/svg" xmlns:xlink="http://www.w3.org/1999/xlink">
    <!-- Generator: Sketch 50.2 (55047) - http://www.bohemiancoding.com/sketch -->
    <title>800x600-homepage-illustration</title>
    <desc>Created with Sketch.</desc>
    <defs>
        <path d="M-1.23590768e-10,108.371271 C0.00495688385,103.347858 0.360292781,98.2658163 1.08653378,93.1524927 C9.49053997,33.9770363 64.4362048,-7.32354444 123.567717,1.08734124 C182.699863,9.49822693 223.969141,64.4840909 215.564501,123.659547 C207.159861,182.83437 152.216097,224.135584 93.0839509,215.724699 C39.1342704,208.050879 0.052323555,161.607358 -4.52902463e-11,108.584496 L-4.52901589e-11,108.371271 M198.307937,121.204629 C205.359953,71.552126 170.730886,25.4146203 121.114622,18.3567295 C71.4989912,11.2994727 25.3957473,45.9549085 18.3430977,95.6074112 C11.2910817,145.259914 45.9201487,191.398054 95.5364129,198.455311" id="path-1"></path>
        <linearGradient x1="87.5227139%" y1="-4.13053611%" x2="14.2044904%" y2="95.0994566%" id="linearGradient-3">
            <stop stop-color="#9EAFBC" offset="0%"></stop>
            <stop stop-color="#657786" offset="100%"></stop>
        </linearGradient>
        <path d="M1.08653378,93.1524927 C-7.31810595,152.327949 33.9524384,207.313813 93.0839509,215.724699 C152.216097,224.13495 207.159861,182.83437 215.564501,123.660181 C223.968507,64.4840909 182.699863,9.49759291 123.567084,1.08734124 C118.420778,0.35568422 113.308684,0 108.252976,0 C55.2269599,0.00126803644 8.75942628,39.1278003 1.08653378,93.1524927 M95.5364129,198.455311 C45.9201487,191.398054 11.2910817,145.259914 18.3430977,95.6074112 C25.3957473,45.9542745 71.4989912,11.3001067 121.114622,18.3573635 C170.730886,25.4146203 205.359953,71.551492 198.307937,121.204629 C191.869195,166.538833 152.883222,199.370833 108.386021,199.367663 C104.146956,199.367029 99.8515042,199.06904 95.5364129,198.455311" id="path-4"></path>
        <linearGradient x1="4.54603041%" y1="-32.8146115%" x2="103.612753%" y2="89.3982264%" id="linearGradient-6">
            <stop stop-color="#E8F3FC" offset="0%"></stop>
            <stop stop-color="#CCE3F7" offset="100%"></stop>
        </linearGradient>
        <ellipse id="path-7" cx="117.905972" cy="117.861414" rx="117.905972" ry="117.861414"></ellipse>
        <linearGradient x1="50%" y1="100%" x2="50%" y2="3.061617e-15%" id="linearGradient-9">
            <stop stop-color="#FFC800" offset="0%"></stop>
            <stop stop-color="#FFD950" offset="100%"></stop>
        </linearGradient>
        <linearGradient x1="50%" y1="2.9466712%" x2="50%" y2="131.589674%" id="linearGradient-10">
            <stop stop-color="#80B2EA" offset="0%"></stop>
            <stop stop-color="#B5D1F2" offset="100%"></stop>
        </linearGradient>
        <linearGradient x1="-169.71815%" y1="-234.166767%" x2="50%" y2="33.9487145%" id="linearGradient-11">
            <stop stop-color="#32C1DF" offset="0%"></stop>
            <stop stop-color="#5F78EA" offset="100%"></stop>
        </linearGradient>
        <linearGradient x1="198.25989%" y1="139.873759%" x2="14.6124%" y2="0%" id="linearGradient-12">
            <stop stop-color="#80B2EA" offset="0%"></stop>
            <stop stop-color="#FFFFFF" offset="100%"></stop>
        </linearGradient>
        <ellipse id="path-13" cx="125.539312" cy="125.491868" rx="125.539312" ry="125.491868"></ellipse>
        <linearGradient x1="1.44424438%" y1="0%" x2="100%" y2="100%" id="linearGradient-15">
            <stop stop-color="#17EAD9" offset="0%"></stop>
            <stop stop-color="#6078EA" offset="100%"></stop>
        </linearGradient>
        <linearGradient x1="50%" y1="0%" x2="50%" y2="100%" id="linearGradient-16">
            <stop stop-color="#FCE73C" offset="0%"></stop>
            <stop stop-color="#F8CA1C" offset="100%"></stop>
        </linearGradient>
        <path d="M23.3591587,1.73954148 C23.7979654,4.07438916 22.6779482,6.74946893 20.5723159,9.0387391 C18.9718913,10.7778808 16.801058,12.2947322 14.3106198,13.2654531 C10.9369679,14.5828029 7.74331891,14.6031929 5.49528439,13.5924917 C4.83607426,13.3042339 3.91046005,13.3086318 2.93604509,13.6900435 C2.20043379,13.9795007 1.55962395,14.4260803 1.08561667,14.9382275 C0.546808397,15.5251379 0.225603464,16.1980058 0.228003501,16.8165005 L0.972414932,18.138648 C0.970814908,17.5169548 1.29361986,16.8436871 1.83082811,16.2591756 C2.30643542,15.7446295 2.94564523,15.2980499 3.68045652,15.0089926 C4.65527149,14.627181 5.58448576,14.625182 6.24129584,14.9142394 C8.49013037,15.9233413 11.6857794,15.9025516 15.0578312,14.5884002 C17.5450694,13.6152804 19.7183028,12.0992287 21.3171273,10.3572884 C23.4215597,8.06921759 24.5411769,5.39533723 24.1039701,3.05809074 C24.0003686,2.50316461 23.8147657,1.99941323 23.5587618,1.54163915 C23.511561,1.45688098 23.4587602,1.36852459 23.4079595,1.27936859 C23.2103564,0.930340848 23.0111534,0.575316064 22.8135503,0.223889504 C23.0699543,0.679264762 23.2563571,1.18541496 23.3591587,1.73954148" id="path-17"></path>
        <path d="M0.3972061,0.760824509 C0.421206468,0.893958804 0.421606474,1.0270931 0.419606443,1.16302601 L1.16521789,2.48557329 C1.16521789,2.35004018 1.16521789,2.21250806 1.14201754,2.07777455 C1.11281709,1.9210519 1.05601622,1.77672313 0.983615104,1.64158982 L0.23640363,0.321841161 C0.310804773,0.452976442 0.363605584,0.602902449 0.3972061,0.760824509" id="path-19"></path>
        <path d="M0.3972061,0.760824509 C0.421206468,0.893958804 0.421606474,1.0270931 0.419606443,1.16302601 L1.16521789,2.48557329 C1.16521789,2.35004018 1.16521789,2.21250806 1.14201754,2.07777455 C1.11281709,1.9210519 1.05601622,1.77672313 0.983615104,1.64158982 L0.23640363,0.321841161 C0.310804773,0.452976442 0.363605584,0.602902449 0.3972061,0.760824509" id="path-21"></path>
        <path d="M0.3972061,0.760824509 C0.421206468,0.893958804 0.421606474,1.0270931 0.419606443,1.16302601 L1.16521789,2.48557329 C1.16521789,2.35004018 1.16521789,2.21250806 1.14201754,2.07777455 C1.11281709,1.9210519 1.05601622,1.77672313 0.983615104,1.64158982 L0.23640363,0.321841161 C0.310804773,0.452976442 0.363605584,0.602902449 0.3972061,0.760824509 Z" id="path-23"></path>
        <path d="M0.0616009459,0.339832282 L0.804412353,1.65678233 C0.935614367,1.56642692 1.04961612,1.46927487 1.20321848,1.33454136 L0.457207021,0.0143928967 C0.305604693,0.151125415 0.188802899,0.242280427 0.0616009459,0.339832282" id="path-25"></path>
        <ellipse id="path-27" cx="13.0607375" cy="13.0623441" rx="13.0607375" ry="13.0623441"></ellipse>
        <filter x="-13.4%" y="-9.6%" width="126.8%" height="126.8%" filterUnits="objectBoundingBox" id="filter-28">
            <feOffset dx="0" dy="1" in="SourceAlpha" result="shadowOffsetOuter1"></feOffset>
            <feGaussianBlur stdDeviation="1" in="shadowOffsetOuter1" result="shadowBlurOuter1"></feGaussianBlur>
            <feColorMatrix values="0 0 0 0 1   0 0 0 0 0.784313725   0 0 0 0 0  0 0 0 1 0" type="matrix" in="shadowBlurOuter1"></feColorMatrix>
        </filter>
        <ellipse id="path-29" cx="16.9464402" cy="16.9414897" rx="16.4462717" ry="16.4400564"></ellipse>
        <filter x="-10.6%" y="-7.6%" width="121.3%" height="121.3%" filterUnits="objectBoundingBox" id="filter-30">
            <feOffset dx="0" dy="1" in="SourceAlpha" result="shadowOffsetOuter1"></feOffset>
            <feGaussianBlur stdDeviation="1" in="shadowOffsetOuter1" result="shadowBlurOuter1"></feGaussianBlur>
            <feColorMatrix values="0 0 0 0 0.56582297   0 0 0 0 0.854830995   0 0 0 0 0.788014461  0 0 0 1 0" type="matrix" in="shadowBlurOuter1"></feColorMatrix>
        </filter>
        <polyline id="path-31" points="12.0864258 18.5079018 15.1419343 21.1073978 22.2689389 13.9795165"></polyline>
        <filter x="-134.3%" y="-163.8%" width="368.7%" height="483.8%" filterUnits="objectBoundingBox" id="filter-32">
            <feMorphology radius="2.178" operator="dilate" in="SourceAlpha" result="shadowSpreadOuter1"></feMorphology>
            <feOffset dx="0" dy="2" in="shadowSpreadOuter1" result="shadowOffsetOuter1"></feOffset>
            <feMorphology radius="2.178" operator="erode" in="SourceAlpha" result="shadowInner"></feMorphology>
            <feOffset dx="0" dy="2" in="shadowInner" result="shadowInner"></feOffset>
            <feComposite in="shadowOffsetOuter1" in2="shadowInner" operator="out" result="shadowOffsetOuter1"></feComposite>
            <feGaussianBlur stdDeviation="3.5" in="shadowOffsetOuter1" result="shadowBlurOuter1"></feGaussianBlur>
            <feColorMatrix values="0 0 0 0 0.23013535   0 0 0 0 0.665019133   0 0 0 0 0.564477194  0 0 0 1 0" type="matrix" in="shadowBlurOuter1"></feColorMatrix>
        </filter>
    </defs>
    <g id="800x600-homepage-illustration" stroke="none" stroke-width="1" fill="none" fill-rule="evenodd">
        <g id="Jobsoid-Homepage-Illustration-Copy" transform="translate(66.000000, 10.000000)">
            <g id="Group-21-Copy-2">
                <path d="M50.4778889,20.5591525 C52.8079892,26.4850499 57.3244141,35.0569741 64.0271636,46.2749253 C155.83066,150.939157 256.089659,184.575864 364.804159,147.185046 C473.518659,109.794228 531.055458,142.742982 537.414554,246.031306 C508.601328,439.882805 400.869385,509.658254 214.218726,455.357654 C129.26984,430.644236 64.7037308,457.348486 20.5203995,535.470402" id="Path-9" stroke="#CCE3F7" stroke-width="4.87872" stroke-linecap="round" stroke-dasharray="0.8131199955940247,10.57056007385254"></path>
                <g id="Group-4" transform="translate(81.478150, 0.352422)">
                    <g id="Group-3">
                        <g id="Group-Copy" transform="translate(14.571590, 15.216437)">
                            <path d="M36.6517377,129.959686 C37.0952574,129.459841 37.5750396,129.018638 38.0659796,128.599774 C44.5653554,121.624292 54.5877835,116.327058 67.4805368,114.073569 C67.9937922,113.981419 68.5488891,113.936741 69.0705129,113.85576 C68.9979877,113.78595 80.7917049,107.988871 80.7917049,107.988871 L82.8781998,84.9066715 C78.3788464,81.8936429 75.7707278,73.9854902 74.6159031,69.0373099 C73.3104491,63.4301169 73.0203482,57.5855676 73.8404411,51.8862245 C74.1138054,49.9817894 74.5796405,47.9572799 76.0078295,46.6588015 C77.4360185,45.360323 80.1166624,45.3072669 81.0343854,47.00227 C81.2854343,44.9330817 82.4876793,43.0844951 83.9437627,41.5877544 C90.0805124,35.2796622 99.9969421,34.7100071 107.6623,30.3594062 C110.125369,28.9576079 112.460123,27.1229835 115.260712,26.6650255 C119.581542,25.9557491 123.882846,28.9045518 125.938657,32.7497235 C127.994468,36.5976877 128.22878,41.1409661 128.022362,45.4915671 C127.938679,47.2926824 127.782471,49.1133446 127.207848,50.8223098 C126.270599,53.6231139 124.281734,55.9519979 123.093436,58.655067 C121.787982,61.6290016 121.497882,64.9240652 120.828418,68.0990545 C120.493686,69.6907378 120.025062,71.3075529 119.319335,72.7763694 L118.789343,79.1319328 C117.952514,89.2181785 111.238352,97.2045191 103.123895,98.5756007 C103.123895,98.5756007 102.568798,104.341962 101.966281,110.71428 L102.139226,110.15021 L108.64418,116.902298 C109.453116,117.164786 110.273208,117.416104 111.062618,117.703724 C125.026513,122.816658 135.899717,131.696575 141.071324,142.137459 C147.37265,151.832765 152.201156,161.645353 155.969678,171.857257 C174.385506,157.601919 187.691096,136.720151 191.869664,112.03789 C200.714952,59.7329438 165.241749,10.2036695 112.627489,1.40752502 C60.018807,-7.385827 10.199557,27.8825236 1.35147966,80.1846777 C-3.318029,107.798986 4.37522361,134.631416 20.4116664,155.113866 C24.208083,146.571833 29.1397982,138.390022 36.6517377,129.959686" id="Fill-1" fill="#CCE3F7"></path>
                            <path d="M101.892919,132.411436 L99.820371,130.895149 L100.277838,131.501105 C100.938933,132.383512 101.058879,133.559124 100.584675,134.55602 L98.6432309,138.635756 C98.3754454,139.199826 97.9681884,139.615898 97.493985,139.900725 L98.1801852,192.116314 C102.464752,192.052088 106.701899,191.711412 110.866521,191.094286 L111.061781,117.703724 C110.272372,117.416104 109.452279,117.167578 108.643343,116.902298 L108.721448,116.983278 L101.892919,132.411436 Z" id="Fill-4" fill="#FFFFFF"></path>
                            <path d="M80.5908658,190.812251 C83.2715096,191.261831 85.9382063,191.566206 88.5965347,191.786808 L94.3009225,139.830914 C93.935507,139.593558 93.6007752,139.289184 93.3553052,138.87032 L91.279968,135.363031 C90.6188727,134.240476 90.7611337,132.821923 91.6398047,131.855743 L93.7235102,129.563161 L87.5951288,131.855743 L69.0705129,113.85576 C68.5488891,113.936741 67.9937922,113.981419 67.4805368,114.073569 L69.2964568,188.204124 C72.967349,189.273623 76.7247134,190.1672 80.5908658,190.812251" id="Fill-6" fill="#FFFFFF"></path>
                            <path d="M141.070208,142.13718 C135.898602,131.696296 125.025397,122.819171 111.061502,117.703445 L110.866242,191.096799 C118.687808,189.937942 126.252747,187.832452 133.429955,184.883649 C135.720078,183.942601 137.973939,182.920573 140.180379,181.81198 C145.759243,179.002798 151.048005,175.668641 155.971352,171.859771 C152.20004,161.647866 147.374324,151.832486 141.070208,142.13718" id="Fill-8" fill="#FFC800"></path>
                            <path d="M67.4799789,114.072453 C54.5872256,116.328733 44.5647976,121.623175 38.0654217,128.601449 C37.5744817,129.017521 37.0974889,129.458724 36.6511798,129.961361 C29.1392403,138.391698 24.2075251,146.573508 20.4111085,155.112749 C22.9690174,158.379889 25.7472914,161.471105 28.7152467,164.391984 C32.6790291,168.295796 36.9859117,171.875687 41.6135788,175.064639 C49.9121381,180.786321 59.2148928,185.262582 69.295899,188.203007 L67.4799789,114.072453 Z" id="Fill-10" fill="#FFC800"></path>
                            <path d="M118.79018,79.1316536 L119.320172,72.7788826 L120.204422,62.176038 C120.670257,56.588392 119.194648,51.4028554 116.502846,47.390138 C114.22667,47.9821325 112.201543,49.3671762 110.416306,50.8080685 C106.633837,53.8741531 103.300466,57.387026 99.2948421,60.2213392 C95.2836393,63.05286 90.377029,65.2169908 85.2165803,64.9656724 C84.9850575,64.9545027 84.7535347,64.9265784 84.5220119,64.904239 C81.5177939,64.7450707 78.8455184,67.4509322 78.5442597,71.0364083 C78.24858,74.6218843 80.4354944,77.7298553 83.4341335,77.9755889 C83.5010799,78.6597335 83.515027,79.3355007 83.5624474,80.0056832 C83.392292,80.3742835 83.250031,80.7652233 83.2137684,81.195257 L82.8790366,84.9063922 L80.7925417,107.988592 L81.6935281,107.544596 L85.537365,112.964697 L96.3436234,128.208555 C96.4440429,128.208555 96.541673,128.222517 96.6420926,128.233687 L100.731399,114.774189 L101.967118,110.714001 C102.569635,104.341683 103.124732,98.5753215 103.124732,98.5753215 C111.239189,97.2042399 117.950561,89.2178992 118.79018,79.1316536" id="Fill-12" fill="#FF9BA0"></path>
                            <path d="M125.938099,32.7511197 C123.885077,28.9031556 119.586563,25.9571453 115.260154,26.6636293 C112.459565,27.1215873 110.1276,28.9590041 107.661742,30.35801 C99.9963842,34.7114034 90.0827439,35.2810584 83.9432048,41.5863582 C82.4871214,43.0830989 81.2848764,44.9344779 81.0338275,47.0008737 C80.1161045,45.3058707 77.4382501,45.3589268 76.010061,46.6574053 C74.581872,47.9558837 74.1160369,49.9803932 73.8398832,51.8876207 C73.0197903,57.5869638 73.3098912,63.4315131 74.6181346,69.0359137 C75.7729593,73.9868864 78.3782886,81.8922467 82.8776419,84.9052753 L83.2179525,81.1969325 C83.2486363,80.7668987 83.3908973,80.3731665 83.5638421,80.0045662 C83.5192112,79.3371762 83.4996851,78.6586165 83.4355282,77.9772643 C80.4368891,77.7287384 78.2471853,74.6235597 78.5484439,71.0380837 C78.8469131,67.4526077 81.5163992,64.7439537 84.5150383,64.9924797 C81.6865545,64.6266718 84.9836628,64.9561781 85.2151856,64.9673478 C90.3784237,65.2158738 95.2878235,63.051743 99.2934474,60.2202223 C103.301861,57.3859091 106.632442,53.8730361 110.42049,50.8097439 C112.200148,49.3660593 114.228065,47.983808 116.501452,47.3890211 C119.193253,51.4017384 120.668862,56.5900674 120.203027,62.1777135 L119.321567,72.7777656 C120.024504,71.3089491 120.493128,69.692134 120.82786,68.0976583 C121.497324,64.922669 121.790214,61.6276054 123.092879,58.6564633 C124.281176,55.9533941 126.270041,53.6245101 127.20729,50.8237061 C127.781913,49.1119484 127.938121,47.2940786 128.021804,45.4929633 C128.228222,41.1423623 127.99391,36.5990839 125.938099,32.7511197" id="Fill-14" fill="#000000"></path>
                            <path d="M85.5376439,115.501328 L81.6938071,110.081228 L80.7928206,110.525224 C80.7928206,110.525224 73.9044816,112.509602 70.8026335,114.246492 L85.5376439,135.416756 L93.724626,132.102306 L94.0760943,131.716951 C94.5335611,131.211521 95.1221312,130.909939 95.7330168,130.79545 C95.9394347,130.756356 96.1430632,130.742394 96.3466917,130.745186 L85.5376439,115.501328 Z" id="Fill-16" fill="#E5E7F5"></path>
                            <path d="M85.5376439,112.965255 L81.6938071,107.545155 L80.7928206,107.989151 C80.7928206,107.989151 72.1734767,112.11915 69.0716286,113.856039 L87.5962445,131.856023 L93.724626,129.566233 L94.0760943,129.180878 C94.5335611,128.675449 95.1221312,128.373866 95.7330168,128.259377 C95.9394347,128.220283 96.1430632,128.206321 96.3466917,128.209113 L85.5376439,112.965255 Z" id="Fill-16-Copy" fill="#FFFFFF"></path>
                            <path d="M102.771657,114.590571 L102.598712,115.154642 L101.365784,119.212038 L97.2736874,132.674327 C97.5358939,132.702252 97.7897322,132.76927 98.0352022,132.864212 C98.5261422,133.062475 98.983609,133.375226 99.3294985,133.833184 L100.453639,135.332718 L102.528977,136.849005 L108.263598,116.980695 L102.771657,114.590571 Z" id="Fill-18" fill="#E5E7F5"></path>
                            <path d="M108.643065,116.901739 L102.13811,110.152444 L101.965165,110.716514 L100.732236,114.77391 L96.64014,128.2362 C96.9023465,128.264124 97.1561848,128.331142 97.4016548,128.426085 C97.8925948,128.624347 98.3500616,128.937099 98.6959511,129.395057 L99.8200921,130.89459 L101.895429,132.410878 L108.721169,116.98272 L108.643065,116.901739 Z" id="Fill-18-Copy" fill="#FFFFFF"></path>
                            <path d="M97.4934271,139.901004 C97.9676305,139.616177 98.3748875,139.200105 98.642673,138.636035 L100.584117,134.553507 C101.055531,133.559403 100.938375,132.383791 100.27728,131.501384 L99.8198131,130.892635 L98.6956722,129.395895 C98.3497826,128.935144 97.8951053,128.622392 97.4013759,128.426923 C97.1559059,128.329188 96.9020676,128.264962 96.639861,128.234245 C96.5422309,128.223075 96.4446008,128.209113 96.3441813,128.209113 C96.1433422,128.206321 95.9369242,128.220283 95.7332957,128.259377 C95.1196207,128.373866 94.5310507,128.672656 94.0707944,129.180878 L93.7221155,129.56344 L91.63841,131.856023 C90.7625284,132.822202 90.617478,134.240755 91.2785733,135.363311 L93.3539105,138.870599 C93.6021699,139.289463 93.9369017,139.593837 94.2995278,139.831194 L88.5979294,191.787087 C91.8141442,192.057952 95.0080435,192.164064 98.1796273,192.116593 L97.4934271,139.901004 Z" id="Fill-20" fill="#4D94E5"></path>
                        </g>
                        <g id="Group-2">
                            <g id="Group-30">
                                <path d="M114.357142,116.418552 C163.972139,123.475809 206.626985,84.2319832 199.574968,133.88512 C198.509342,141.386823 196.546612,148.543621 193.821091,155.268018 C199.927854,145.134505 204.144112,133.639755 205.910442,121.204756 C212.962458,71.5516188 178.332758,25.4141131 128.717127,18.3568563 C86.5976293,12.3660181 47.0148552,36.4377878 31.6994805,74.2233716 C49.9760558,43.893208 77.1666428,111.128304 114.357142,116.418552" id="Fill-1" fill="#FFFFFF" opacity="0.281919643"></path>
                                <g id="Group-18" transform="translate(0.000000, 7.608219)">
                                    <path d="M218.159891,203.145967 L238.577223,223.578473" id="Stroke-10" stroke="#000000" stroke-width="6.342336" stroke-linecap="round" stroke-linejoin="round"></path>
                                    <g id="Group-14"></g>
                                    <g id="Group-17">
                                        <mask id="mask-2" fill="white">
                                            <use xlink:href="#path-1"></use>
                                        </mask>
                                        <g id="Clip-16"></g>
                                    </g>
                                </g>
                                <path d="M203.096478,196.088774 C204.752571,194.43145 204.752571,191.743847 203.096478,190.087158 L194.355425,181.339608 L188.358265,187.341225 L197.098685,196.088774 C198.754778,197.746098 201.440385,197.746098 203.096478,196.088774" id="Fill-19" fill="#263238"></path>
                                <path d="M203.096478,196.088774 C204.752571,194.43145 204.752571,191.743847 203.096478,190.087158 L194.355425,181.339608 L188.358265,187.341225 L197.098685,196.088774 C198.754778,197.746098 201.440385,197.746098 203.096478,196.088774 Z" id="Stroke-21" stroke="#14181A" stroke-width="6.342336"></path>
                                <path d="M255.286782,248.317863 C262.33373,241.265045 262.33373,229.830526 255.286782,222.778342 L224.661735,192.130535 C217.614153,185.077716 206.188126,185.077716 199.140545,192.130535 C192.093597,199.18272 192.093597,210.617238 199.140545,217.670057 L229.765593,248.317863 C236.813174,255.370682 248.239201,255.370682 255.286782,248.317863" id="Fill-23" fill="#4D94E5"></path>
                                <path d="M225.76246,203.145967 L246.179792,223.578473" id="Stroke-25" stroke="#FFFFFF" stroke-width="6.342336" opacity="0.935993304" stroke-linecap="round" stroke-linejoin="round"></path>
                                <path d="M219.529448,196.274306 L217.286558,194.029749" id="Stroke-25-Copy" stroke="#FFFFFF" stroke-width="6.342336" stroke-linecap="round" stroke-linejoin="round"></path>
                                <g id="Group-29" transform="translate(7.602569, 0.000000)" fill="url(#linearGradient-3)">
                                    <path d="M198.307747,121.204692 C205.359763,71.5521894 170.73133,25.4146837 121.114432,18.3567929 C71.4994347,11.2995361 25.3955572,45.9543379 18.3429076,95.6074746 C11.2915251,145.259977 45.9205922,191.398117 95.5362228,198.455374 C145.153121,205.512631 191.255731,170.857195 198.307747,121.204692 M1.08634372,93.1525561 C9.49098345,33.9770997 64.4360148,-7.32348104 123.567527,1.08740465 C182.699673,9.49829033 223.968951,64.4841543 215.564311,123.659611 C207.160305,182.834433 152.215907,224.135648 93.0837609,215.724762 C33.9522484,207.313876 -7.31766247,152.328012 1.08634372,93.1525561" id="Fill-27"></path>
                                </g>
                            </g>
                            <g id="Group-33" transform="translate(7.602569, 0.000000)">
                                <mask id="mask-5" fill="white">
                                    <use xlink:href="#path-4"></use>
                                </mask>
                                <g id="Clip-32"></g>
                                <path d="M204.276334,122.053516 C211.795908,69.1072884 174.870865,19.9093767 121.963322,12.3842145 C69.055779,4.8584182 19.8950354,41.811536 12.3748278,94.7583974 C4.85462026,147.704625 41.7815637,196.903171 94.6878395,204.428333 C147.595382,211.953495 196.75676,174.999743 204.276334,122.053516" id="Fill-31" fill="#A6ADC9" mask="url(#mask-5)"></path>
                            </g>
                            <path d="M260.006077,231.064326 C259.232515,234.100639 257.661318,236.974644 255.286782,239.350944 C248.239201,246.403762 236.813174,246.403762 229.765593,239.350944 L199.140545,208.703771 C196.766009,206.327471 195.194812,203.452832 194.42125,200.416519 C192.896935,206.391507 194.468133,212.993538 199.140545,217.670057 L229.765593,248.317863 C236.813174,255.370682 248.239201,255.370682 255.286782,248.317863 C259.959194,243.641345 261.530392,237.039313 260.006077,231.064326 Z" id="Fill-34" fill="#263238" opacity="0.223660714"></path>
                            <g id="Group-38" transform="translate(7.602569, 0.000000)" fill="#FFFFFF">
                                <path d="M1.08456978,95.6885656 C9.48920952,36.5137432 64.4342408,-4.78747157 123.56512,3.62341412 C177.093539,11.2373389 215.981945,57.0166243 216.6383,109.520307 C217.226232,55.962252 177.953897,8.82363154 123.56512,1.08734124 C64.4342408,-7.32354444 9.48920952,33.9776703 1.08456978,93.1524927 C0.28820071,98.7610178 -0.0602503572,104.330868 0.00880630878,109.827806 C0.0601236477,105.15636 0.410475357,100.436094 1.08456978,95.6885656" id="Fill-36"></path>
                            </g>
                            <path d="M103.137018,200.991257 C152.753282,208.048513 198.856526,173.393712 205.908542,123.740575 C206.579468,119.013335 206.8709,114.317796 206.81008,109.684391 C206.753694,113.492304 206.457194,117.338259 205.908542,121.204502 C198.856526,170.857639 152.753282,205.51244 103.137018,198.455184 C58.2451164,192.069986 25.6243946,153.690961 25.0421645,109.663468 C24.3775733,154.745334 57.384759,194.48306 103.137018,200.991257" id="Fill-39" fill="#FFFFFF"></path>
                        </g>
                    </g>
                </g>
                <g id="Group-12" transform="translate(419.137162, 168.436787)">
                    <g id="Fill-98-Copy-3-+-Fill-99-Copy-3-Mask" transform="translate(12.604791, 0.000000)">
                        <mask id="mask-8" fill="white">
                            <use xlink:href="#path-7"></use>
                        </mask>
                        <use id="Mask" fill="url(#linearGradient-6)" xlink:href="#path-7"></use>
                        <polygon id="Fill-98-Copy-3" fill="#A6ADC9" mask="url(#mask-8)" points="157.727046 297.117104 162.07177 297.117104 162.07177 168.460394 157.727046 168.460394"></polygon>
                        <polygon id="Fill-99-Copy-3" fill="#A6ADC9" mask="url(#mask-8)" points="205.779291 297.117104 210.124015 297.117104 210.124015 168.460394 205.779291 168.460394"></polygon>
                    </g>
                    <g id="Group-8" transform="translate(0.000000, 43.776095)">
                        <g id="Group-133">
                            <g id="Group-134">
                                <path d="M94.132661,109.102801 C94.1204236,109.077777 94.1063505,109.05338 94.0953369,109.03211 L94.132661,106.795638 L184.684577,106.795638 L184.684577,109.03211 C184.684577,109.03211 184.699874,109.077777 184.684577,109.102801 L184.453902,109.51819 C183.290124,111.456257 181.202423,111.805335 178.811845,111.805335 L100.009064,111.805335 C97.6172626,111.805335 95.5320084,111.456257 94.3657836,109.51819 L94.132661,109.102801 Z" id="Fill-122" fill="#657786"></path>
                                <path d="M115.955629,109.480342 C115.955629,109.480342 115.969702,109.518503 115.955629,109.54165 L115.731072,109.87759 C115.373128,110.37931 114.923403,110.748406 114.406985,111.017408 L100.638678,111.017408 C98.337434,111.017408 96.3292755,110.737146 95.2095528,109.1688 L94.9929507,108.829107 C94.9776539,108.809088 94.9641928,108.792197 94.9525672,108.772804 L94.9764302,107.671146 L115.955629,107.671146 L115.955629,109.480342 Z" id="Fill-123" fill="#D2D7E7"></path>
                                <path d="M116.457546,106.712873 L128.197502,61.2221001 C128.508332,60.0165949 129.709434,59.0456847 130.881777,59.0456847 L194.414111,59.0456847 C195.585842,59.0456847 196.287658,60.0165949 195.977439,61.2221001 L184.238095,106.712873 L116.457546,106.712873 Z" id="Fill-125" fill="#14181A"></path>
                                <path d="M120.116726,106.712873 L130.59415,64.2807625 C130.871553,63.2048991 131.943486,62.338402 132.989754,62.338402 L189.689727,62.338402 C190.735449,62.338402 191.36179,63.2048991 191.084933,64.2807625 L180.608055,106.712873 L120.116726,106.712873 Z" id="Fill-125-Copy-2" fill="#8DC5F3"></path>
                                <polygon id="Fill-69" fill="#A6ADC9" points="13.2137066 124.99033 230.934933 124.99033 230.934933 111.842427 13.2137066 111.842427"></polygon>
                                <polygon id="Fill-99" fill="#A6ADC9" points="81.9249807 242.243363 85.8951913 242.243363 85.8951913 124.676804 81.9249807 124.676804"></polygon>
                                <path d="M150.020474,142.044779 C127.395763,130.240819 78.9262608,125.921135 68.6787264,126.573854 C63.2082519,126.920383 57.0370443,151.28003 71.8183031,158.538787 C91.0509546,167.981221 139.562537,165.810378 152.269041,164.178579 C157.020486,163.568029 163.590544,149.123855 150.020474,142.044779" id="Fill-105" fill="#14181A"></path>
                                <path d="M114.018426,224.520431 C113.55188,228.196563 114.153815,230.888115 114.153815,230.888115 C114.236147,231.062296 118.116708,230.988957 120.182315,228.898787 C120.182315,228.898787 120.107302,227.217484 120.82999,224.87796 C118.153299,222.402759 114.393492,224.5516 114.018426,224.520431" id="Fill-106" fill="#2B2D38"></path>
                                <path d="M132.837799,160.025262 C122.432919,190.62975 112.011574,225.592427 112.011574,225.592427 C114.816336,224.785694 118.345615,226.195642 119.468983,228.26381 C119.468983,228.26381 137.243452,194.971437 155.030727,162.83049 C162.286881,149.719257 139.698762,139.845955 132.837799,160.025262" id="Fill-107" fill="#14181A"></path>
                                <path d="M121.231325,228.866646 C120.263472,227.93157 120.082342,227.552039 120.082342,227.552039 C120.082342,227.552039 115.349192,226.376777 113.947726,229.721049 C113.947726,229.721049 113.343962,233.186331 115.010718,235.076651 C115.682178,235.83938 119.103511,239.57785 120.814178,240.364414 C122.1882,240.993299 124.321503,240.907125 126.729243,240.558764 C129.136984,240.210402 131.971019,238.631774 131.824652,237.221826 C131.533747,234.423931 123.097507,230.663459 121.231325,228.866646" id="Fill-108" fill="#14181A"></path>
                                <path d="M67.1756381,224.509157 C66.0284851,226.793676 64.4422305,229.252376 64.4422305,229.252376 C66.5078377,231.344379 71.6874074,233.205364 71.7679094,233.027516 C71.7679094,233.027516 72.8162645,229.505396 73.4712578,225.90077 C73.0961918,225.930105 69.8523285,222.032122 67.1756381,224.509157" id="Fill-109" fill="#14181A"></path>
                                <path d="M85.4148222,170.421148 C75.0099431,201.023803 66.2718206,226.463371 66.2718206,226.463371 C69.0765823,225.658473 72.4430281,227.180263 73.5645669,229.246598 C73.5645669,229.246598 86.7577414,207.087129 104.546846,174.948016 C111.801171,161.83495 92.2757852,150.238174 85.4148222,170.421148" id="Fill-110" fill="#14181A"></path>
                                <path d="M69.2594984,227.670275 C69.2357138,227.659274 69.2137587,227.650107 69.189974,227.64094 C67.444545,226.971719 65.4630989,227.507095 64.1165205,228.805201 L64.0634624,228.858372 C62.1972805,230.657018 53.7610404,234.417491 53.4701355,237.213551 C53.3237683,238.625333 56.1559739,240.202128 58.5655441,240.550489 C60.9732847,240.900684 63.1065868,240.986858 64.480609,240.35614 C66.1912758,239.569576 69.676645,235.88611 70.2840689,235.068377 C70.9372326,234.195639 71.1878864,232.362157 71.2848547,231.082386 C71.3946301,229.628435 70.609736,228.21482 69.2594984,227.670275" id="Fill-111" fill="#14181A"></path>
                                <path d="M71.3780034,27.5022362 C71.8536968,30.8263398 70.4138094,37.1390197 69.7277131,41.8125664 C72.4592912,47.9290637 82.432387,47.9327307 83.1258017,44.3281043 C81.548695,40.446622 83.2245995,33.2392027 83.244725,32.5589807 C80.7894151,32.9238437 72.2049781,28.1146193 71.3780034,27.5022362" id="Fill-112" fill="#FF9BA0"></path>
                                <path d="M83.2211936,11.0600697 C76.9859504,11.4726032 73.2169947,16.8978777 73.6195045,23.0895478 C73.6231637,23.1500527 74.0384807,29.5140701 74.0384807,29.5140701 C74.3440222,34.1821164 79.2070728,41.6480567 86.0058298,39.9282502 C95.5379944,37.5208878 96.3649691,19.5105901 95.9094012,17.5450969 C94.6414952,12.0446497 89.0264831,10.6805388 83.2211936,11.0600697" id="Fill-113" fill="#FF9BA0"></path>
                                <path d="M83.3199415,45.9947398 C82.8716919,45.8058911 82.7783828,40.8316533 82.7783828,40.8316533 C82.7783828,40.8316533 80.2023199,41.2606882 76.358351,40.5547975 C71.72034,39.6985612 69.7059613,38.5031307 69.7059613,38.5031307 C69.7059613,38.5031307 68.5405124,43.2720184 67.5470449,43.624047 C65.8528444,44.2290962 61.2386181,45.3346861 59.0833609,45.8443942 C51.4301854,47.6632088 48.0875242,58.5284256 47.1251598,66.1410445 C46.9202457,67.7508421 40.6575586,109.420397 40.6575586,149.691005 C41.7973933,149.777178 88.9971597,163.225772 109.380623,130.729129 C99.8008895,116.757993 100.78155,74.8849222 100.594932,70.9319341 C100.194251,62.4465775 102.662368,56.2732422 93.2564456,50.50694 C91.955607,49.7093752 85.4953242,46.9261489 83.3199415,45.9947398 Z" id="Fill-114" fill="url(#linearGradient-9)"></path>
                                <path d="M168.285663,102.750126 C167.676409,102.542942 160.53186,102.80513 158.764476,103.043483 C157.2697,103.230498 155.774925,103.514688 154.400903,103.890552 C154.32406,103.918054 153.899595,108.795117 154.195989,110.322408 C158.219258,110.106057 162.001021,109.346996 164.5039,109.044471 C167.616033,108.666774 168.746719,107.84904 167.919745,107.155984 C167.751422,107.018473 170.329315,106.488597 169.346825,105.234495 C169.346825,105.234495 170.325656,104.453431 170.177459,103.797044 C169.956078,102.816131 168.673536,102.88397 168.285663,102.750126 Z" id="Fill-116" fill="#FF9BA0"></path>
                                <path d="M98.2146348,55.2288209 C94.4603159,48.6264507 80.9085417,59.124971 80.9085417,69.5519855 C80.9085417,79.2932775 102.150083,100.948538 109.402579,106.713007 C116.27086,112.334464 143.264633,111.540566 154.558693,111.923764 L155.2393,102.576671 C150.650688,101.890948 122.553672,98.3449933 119.52936,97.0927248 C119.141487,96.3464975 101.765869,61.473662 98.2146348,55.2288209" id="Fill-119" fill="#FFC800"></path>
                                <path d="M71.3071296,2.68126885 C64.0235312,8.40356746 62.3476266,18.9167556 67.185063,25.5044579 C70.5844414,30.134001 68.5664035,32.0921602 71.4114162,32.6550393 C85.2120146,35.3960955 88.174121,23.2566085 94.0544238,20.0461808 C96.6707377,18.6123975 101.140426,17.2464531 98.4198258,10.9246058 C94.7752823,2.45025007 79.5549219,-3.79642451 71.3071296,2.68126885" id="Fill-120" fill="#2B2D38"></path>
                                <polygon id="Fill-121" fill="#14181A" points="5.895346 242.085684 8.50251195 242.085684 31.7785577 174.180829 29.1713918 174.180829"></polygon>
                                <polygon id="Fill-122" fill="#14181A" points="44.3167389 242.085684 46.9239049 242.085684 70.1999506 174.180829 67.5946143 174.180829"></polygon>
                                <path d="M92.3217983,162.06151 C82.5627645,162.06151 72.0499396,155.092444 70.253282,145.483162 L60.0350211,102.957371 C56.977776,86.5990413 41.2670855,73.3392965 24.9453118,73.3392965 C8.62170862,73.3392965 -2.13262222,86.5990413 0.926452494,102.957371 L17.5976778,166.879902 C18.3661057,170.884228 21.8661116,173.779297 25.9369497,173.77563 L113.581636,173.683955 C116.781589,173.678455 119.372289,171.078577 119.372289,167.87365 C119.372289,164.661388 116.7761,162.06151 113.574317,162.06151 L92.3217983,162.06151 Z" id="Fill-123" fill="#4D94E5"></path>
                                <path d="M113.897882,162.145851 L92.6453624,162.145851 C82.8863286,162.145851 72.3735037,155.140114 70.5768462,145.527166 L60.3585853,102.959205 C57.3013401,86.6008748 41.5906496,73.3392965 25.268876,73.3392965 C15.7568369,73.3392965 8.16403778,77.8588306 4.06575586,84.8517326 C7.77250549,82.6753889 12.2165799,81.4304544 17.1912355,81.4304544 C33.5130092,81.4304544 49.2236997,94.6828653 52.2809448,111.041195 L62.4992057,153.546818 C64.2976928,163.1616 74.8086882,170.09583 84.5695516,170.09583 L105.820241,170.09583 C108.215175,170.09583 110.267975,171.591952 111.153496,173.667454 L113.9052,173.705957 C117.105153,173.704124 119.695853,171.122581 119.695853,167.91582 C119.695853,164.707226 117.099664,162.145851 113.897882,162.145851" id="Fill-124" fill="url(#linearGradient-10)"></path>
                                <polygon id="Fill-126" fill="#14181A" points="57.1238699 174.180829 80.4017452 242.085684 83.0070816 242.085684 59.7310358 174.180829"></polygon>
                            </g>
                        </g>
                        <g id="Group-Copy-2" transform="translate(130.104188, 23.572472)">
                            <polygon id="Fill-35" fill="#FFFFFF" points="0.500278554 70.7190042 62.922943 70.7190042 74.619932 18.786997 12.1972676 18.786997"></polygon>
                            <g id="Group-7" transform="translate(2.439454, 0.000000)">
                                <path d="M33.1457922,60.9701861 C23.074464,60.9701861 14.9093954,52.8945142 14.9093954,42.9329463 C14.9093954,32.9713784 23.074464,24.8957064 33.1457922,24.8957064 C43.2181462,24.8957064 51.3832147,32.9713784 51.3832147,42.9329463 C51.3832147,52.8945142 43.2181462,60.9701861 33.1457922,60.9701861 Z" id="Fill-60" fill="url(#linearGradient-11)"></path>
                                <g id="Group-6">
                                    <g id="Group-4">
                                        <path d="M28.0199285,19.3458684 C26.2783834,21.3955765 24.3865873,23.3848015 22.7748043,24.8968812 C21.217658,26.3619185 20.3113716,27.3249453 19.291714,27.5984638 C16.6486631,26.9936319 11.9703947,20.380803 9.58003863,15.9991318 C9.56501354,15.9715784 9.54384181,15.9494012 9.52813376,15.9231918 C9.48852214,15.8586764 9.44754461,15.7968491 9.40110341,15.73771 C9.36558954,15.6920116 9.32939272,15.6503454 9.29046407,15.6086792 C9.24538878,15.5602927 9.19826462,15.5139222 9.14772566,15.4702399 C9.10128446,15.4292458 9.05279438,15.3916118 9.00225542,15.3553219 C8.95239942,15.319704 8.9011775,15.2861022 8.84790671,15.2551886 C8.7898552,15.2215868 8.73043778,15.1913452 8.66965444,15.1637917 C8.61774957,15.1409425 8.56516173,15.1187654 8.51052502,15.0999484 C8.44018026,15.0750831 8.36915253,15.0562661 8.29675889,15.0394652 C8.26534278,15.0320728 8.23665851,15.0206482 8.20455944,15.0139278 C7.28871158,14.808957 5.84903425,15.4057245 4.57463297,14.9137946 C3.12334534,14.353989 7.22246456,17.6718281 8.1321658,17.8438691 C9.98366734,21.0918165 13.8956558,30.7234286 18.8887682,31.4357862 C18.9980417,31.4559473 19.1073151,31.4626676 19.2302477,31.4626676 C20.7395868,31.4626676 22.8772481,30.1656392 25.6227428,27.5917434 C27.2208666,26.0931044 29.0238781,24.1643626 31.0242647,21.8122385 C31.7147361,20.9990756 31.6054627,19.7826914 30.7790824,19.1039356 C29.9458726,18.4184595 28.7158636,18.5327055 28.0199285,19.3458684 Z" id="Fill-99" fill="#FFD2B0"></path>
                                        <path d="M7.30126275,17.4376448 C9.7529833,17.4376448 9.75331191,16.2079493 9.75331191,13.6098647 C9.75331191,11.0117802 9.49453452,7.89789152 6.25414805,7.75186819 C3.01376159,7.60584486 6.19712365,14.6438412 3.40492896,13.368352 C0.612734257,12.0928628 4.8495422,17.4376448 7.30126275,17.4376448 Z" id="Oval" fill="#FFD2B0" transform="translate(6.119897, 12.593635) scale(-1, 1) rotate(52.000000) translate(-6.119897, -12.593635) "></path>
                                        <path d="M54.5948955,63.3821248 C57.046616,63.3821248 57.0469446,62.1524292 57.0469446,59.5543447 C57.0469446,56.9562602 56.7881672,53.8423715 53.5477808,53.6963481 C50.3073943,53.5503248 53.4907564,60.5883211 50.6985617,59.3128319 C47.906367,58.0373428 52.1431749,63.3821248 54.5948955,63.3821248 Z" id="Oval-Copy" fill="#FFD2B0" transform="translate(53.413529, 58.538115) scale(-1, 1) rotate(-164.000000) translate(-53.413529, -58.538115) "></path>
                                        <path d="M31.0631933,3.96243919 C28.4549733,2.58342243 28.0499787,7.61360782 28.8900181,9.25606247 C29.7963046,11.0255318 32.4646249,12.565165 33.2008546,11.1303694 C34.1569971,9.266143 34.5797486,5.82196129 31.0631933,3.96243919" id="Fill-100" fill="#2B2D38"></path>
                                        <path d="M31.0244695,21.8123729 C29.0234,24.164497 27.2210715,26.0932388 25.6229477,27.5918778 L22.7750092,24.8970157 C24.3861092,23.3849359 26.2785883,21.3957109 28.0201334,19.3460028 C28.7160685,18.5328399 29.9460775,18.4185939 30.7792873,19.10407 C31.6056676,19.7828258 31.714941,20.99921 31.0244695,21.8123729" id="Fill-101" fill="#F5A623"></path>
                                        <path d="M31.723478,22.4421373 C30.0584242,24.0099961 28.3332701,25.6833643 26.6716311,27.325147 L22.7466664,23.610135 C24.7641269,21.6336787 26.6361172,19.8453923 27.9706189,18.587342 C29.0537917,17.5658481 30.7680185,17.602138 31.805433,18.6679862 C32.8476283,19.724426 32.8066508,21.4206434 31.723478,22.4421373" id="Fill-102" fill="#FBB116"></path>
                                        <path d="M39.3293862,15.9455706 C39.3498749,17.6458203 39.1388406,19.7963338 38.169039,21.3084135 C36.9806906,23.1699517 36.7484845,23.5462916 36.7211662,23.5866137 C36.2909021,24.2922509 35.5259881,24.6887519 34.7399025,24.6887519 C34.3369567,24.6887519 33.9271814,24.5812262 33.5590666,24.3661748 C32.4656494,23.7210208 32.1036812,22.3299074 32.7593217,21.2546507 C32.7593217,21.2546507 32.9437206,20.938794 34.2618312,18.8890859 C34.4872077,18.5396275 34.6176528,17.867592 34.6722895,17.0813105 C34.7399025,16.1270202 34.6920953,14.9912802 34.5561865,14.0504306 C34.3642751,12.807165 35.2391454,11.651264 36.5019364,11.4698145 C37.7654103,11.2816445 38.93327,12.1351296 39.1244985,13.3783952 C39.1791352,13.7412943 39.3095804,14.7291864 39.3293862,15.9455706" id="Fill-103" fill="#FFD2B0"></path>
                                        <path d="M44.9864712,19.6761738 C43.8418321,26.1297303 41.6085566,42.3325051 42.0934574,48.8519211 L25.6423438,48.8519211 C25.6423438,48.8519211 26.6340001,24.8387502 28.1925122,18.9880095 C28.3803259,18.2870765 29.0284539,17.8018669 29.7646836,17.8018669 L43.3822008,17.8018669 C44.392297,17.8018669 45.1599428,18.6970182 44.9864712,19.6761738" id="Fill-104" fill="#F8CA1C"></path>
                                        <path d="M41.3782628,59.3889666 C41.3782628,59.3889666 43.3820642,55.7740879 42.0933208,48.8514506 L25.6422072,48.8514506 C25.6422072,48.8514506 25.4086352,54.1208806 25.7863115,59.3889666 C26.8539298,60.0766362 29.1006859,60.4423745 32.5265797,60.4861815 C35.9524735,60.5299885 38.9030346,60.1642502 41.3782628,59.3889666 Z" id="Fill-105" fill="#2B2D38"></path>
                                        <path d="M39.3293862,15.9455706 C38.1758686,16.6848096 36.8031213,17.1149123 35.3279301,17.1149123 C35.1087003,17.1149123 34.8901534,17.1081919 34.6722895,17.0813105 C34.7399025,16.1270202 34.6920953,14.9912802 34.5561865,14.0504306 C34.3642751,12.807165 35.2391454,11.651264 36.5019364,11.4698145 C37.7654103,11.2816445 38.93327,12.1351296 39.1244985,13.3783952 C39.1791352,13.7412943 39.3095804,14.7291864 39.3293862,15.9455706" id="Fill-109" fill="#F5A623"></path>
                                        <path d="M28.9622752,8.78053018 C28.9622752,12.7730928 31.1853064,16.0096156 35.194275,16.0096156 C38.3529599,16.0096156 43.2231397,12.7730928 43.2231397,8.78053018 C43.2231397,4.78863958 39.9333267,1.55144479 35.8765509,1.55144479 C31.8190922,1.55144479 28.9622752,4.78863958 28.9622752,8.78053018" id="Fill-110" fill="#FFD2B0"></path>
                                        <path d="M39.252826,59.7387498 C39.9637862,57.2145846 40.631848,52.1158738 40.3067596,48.8726307 L40.6468731,48.839701 C40.914593,51.5103699 40.3172394,57.0341306 39.5400322,59.7847718 C39.5188605,59.940684 39.2268736,59.9154951 39.252826,59.7387498 Z" id="Fill-112" fill="#424261"></path>
                                        <path d="M42.3479961,3.00425103 C40.1700403,1.0304829 38.5070354,5.80395074 38.9065663,7.60030151 C39.3368304,9.53576362 41.5332262,11.6795567 42.6082035,10.4698929 C44.0062203,8.89867401 45.2854023,5.6648394 42.3479961,3.00425103" id="Fill-113" fill="#2B2D38"></path>
                                        <path d="M35.3069632,15.6794446 C36.6407819,14.6310692 34.0236835,13.280278 32.9480232,13.3461375 C31.7904079,13.4173732 30.3555113,14.4603722 30.9619788,15.1693696 C31.7487474,16.0907303 33.5080495,17.0920631 35.3069632,15.6794446" id="Fill-114" fill="#2B2D38"></path>
                                        <path d="M40.8840738,4.18723505 C39.0967704,5.44125321 29.8713618,5.63547145 28.3203621,3.39893746 C28.3203621,3.39893746 29.2512351,3.5931557 30.1527408,3.3162771 C30.1527408,3.3162771 28.3777307,2.59518305 27.7569211,1.76320316 C27.7569211,1.76320316 29.9553657,1.89492211 32.0124379,1.05218965 C34.06951,0.210129223 38.223266,-0.945099725 40.9059285,1.32906826 C43.587908,3.6025642 40.8840738,4.18723505 40.8840738,4.18723505" id="Fill-115" fill="#2B2D38"></path>
                                        <path d="M43.7139139,10.8908559 C43.5609311,11.6630247 43.0712496,12.2866736 42.4231216,12.6428523 C41.6643543,13.0595143 40.7594338,12.3780704 40.9253928,11.5386981 L41.3775116,9.2584818 C41.5441535,8.41910951 42.6437173,8.12274188 43.1873526,8.79007308 C43.6510817,9.35928711 43.8675797,10.1186872 43.7139139,10.8908559" id="Fill-116" fill="#FFD2B0"></path>
                                        <path d="M32.6271692,17.8022029 C32.2167109,19.2107893 33.5710183,20.0420971 35.9422516,19.7134718 C37.5991098,19.4836357 39.3768518,18.7457407 40.73594,17.8022029 L32.6271692,17.8022029 Z" id="Fill-117" fill="#FFD2B0"></path>
                                        <path d="M45.8896348,27.6341767 L50.9866023,38.0831728 C51.2565979,38.636675 51.4401344,39.2283012 51.530815,39.8374312 L54.0367874,56.6708336 L55.9919573,56.6708336 L54.7397549,37.5716385 L49.168371,25.5445664 L45.8896348,27.6341767 Z" id="Path-2" fill="#FFD2B0"></path>
                                        <path d="M49.4850531,26.1941113 L46.1795321,28.2774212 C44.8409327,26.1269077 43.3111048,23.7949447 41.8495728,21.657872 C41.2485689,20.7775055 41.480775,19.5812824 42.3754511,18.9831709 C43.2769568,18.3917796 44.486477,18.6202717 45.0936275,19.5006382 C46.3775902,21.3688967 47.9900561,23.781504 49.4850531,26.1941113" id="Fill-118" fill="#F5A623"></path>
                                        <path d="M41.2288314,22.0470477 C42.5530887,23.9032096 43.9149087,25.8742896 45.2214091,27.8016873 L49.8040632,24.9079026 C48.2155008,22.584004 46.7321141,20.4717966 45.671479,18.982566 C44.8102678,17.7735742 43.1213105,17.4819108 41.8933504,18.3293476 C40.6626585,19.1660317 40.3676203,20.8380559 41.2288314,22.0470477" id="Fill-119" fill="#F8CA1C"></path>
                                        <polygon id="Fill-120" fill="#424261" points="33.3341842 60.4606275 33.6746593 60.4606275 33.5894153 48.8560042 33.2489402 48.8560042"></polygon>
                                        <path d="M33.4015079,57.7259476 C32.3668252,57.7259476 31.5254199,56.898 31.5254199,55.8798662 L31.5358245,48.8648402 L31.877304,48.8648402 L31.8668993,55.8798662 C31.8668993,56.7125182 32.5553219,57.3899299 33.4015079,57.3899299 L33.4015079,57.7259476 Z" id="Fill-121" fill="#424261"></path>
                                    </g>
                                    <path d="M56.8094166,67.1480007 L8.63804186,67.1480007 C8.02920606,67.1480007 7.53605503,66.660249 7.53605503,66.0580791 C7.53605503,65.4564991 8.02920606,64.9687474 8.63804186,64.9687474 L56.8094166,64.9687474 C57.4182524,64.9687474 57.9114034,65.4564991 57.9114034,66.0580791 C57.9114034,66.660249 57.4182524,67.1480007 56.8094166,67.1480007" id="Fill-64" fill="#D2D7E7"></path>
                                    <path d="M26.8492688,69.0343671 C25.1873438,69.0343671 23.8402723,67.7020441 23.8402723,66.0583151 C23.8402723,64.414586 25.1873438,63.082263 26.8492688,63.082263 C28.5111937,63.082263 29.8582653,64.414586 29.8582653,66.0583151 C29.8582653,67.7020441 28.5111937,69.0343671 26.8492688,69.0343671 Z" id="Fill-65" fill="#4D94E5"></path>
                                    <path d="M41.0222625,66.0583151 C41.0222625,67.7020441 39.675191,69.0343671 38.013266,69.0343671 C36.3513411,69.0343671 35.0036732,67.7020441 35.0036732,66.0583151 C35.0036732,64.414586 36.3513411,63.082263 38.013266,63.082263 C39.675191,63.082263 41.0222625,64.414586 41.0222625,66.0583151" id="Fill-66" fill="#4D94E5"></path>
                                    <path d="M36.8818213,66.9809737 L36.8818213,65.1349486 C36.8818213,64.8406462 37.1978673,64.6513254 37.4626304,64.7881554 L39.2396438,65.711168 C39.5228926,65.8580243 39.5228926,66.2578981 39.2396438,66.4047544 L37.4626304,67.3283568 C37.1978673,67.4645969 36.8818213,67.2758659 36.8818213,66.9809737" id="Fill-67" fill="#FFFFFF"></path>
                                    <path d="M27.6640115,67.3271182 L26.0348838,67.3271182 C25.7760839,67.3271182 25.5661816,67.1195141 25.5661816,66.8641375 L25.5661816,65.2522567 C25.5661816,64.9968801 25.7760839,64.7886862 26.0348838,64.7886862 L27.6640115,64.7886862 C27.9228115,64.7886862 28.1327137,64.9968801 28.1327137,65.2522567 L28.1327137,66.8641375 C28.1327137,67.1195141 27.9228115,67.3271182 27.6640115,67.3271182" id="Fill-68" fill="#FFFFFF"></path>
                                </g>
                            </g>
                        </g>
                    </g>
                </g>
                <g id="Group-13" transform="translate(85.380873, 308.247827)">
                    <g id="Path-4" transform="translate(1.077850, 1.088529)">
                        <mask id="mask-14" fill="white">
                            <use xlink:href="#path-13"></use>
                        </mask>
                        <use id="Mask" fill="url(#linearGradient-12)" xlink:href="#path-13"></use>
                        <polygon fill="url(#linearGradient-15)" opacity="0.167745536" mask="url(#mask-14)" points="107.430713 206.153771 107.430713 145.950348 167.711929 145.950348 167.711929 206.153771 195.082342 206.153771 195.082342 84.9610321 174.308581 84.9610321 174.308581 65.4178556 259.593296 65.4178556 259.593296 -16.2239354 367.267018 91.409095 349.222311 373.925159 -51.7264582 206.153771"></polygon>
                    </g>
                    <g id="Group-14" transform="translate(13.060738, 25.370581)">
                        <path d="M66.7844976,41.3236245 C66.7844976,41.3236245 59.0435787,44.5436354 68.5189242,67.8177489 C77.9898697,91.0878643 82.8627445,88.0457657 82.8627445,88.0457657 L89.1400409,87.188189 L100.119809,71.9217234 L93.1345022,66.2697129 L91.8548826,66.8586222 C91.8548826,66.8586222 90.1116558,66.2021462 89.7912509,64.5881428 C89.4700459,62.9729399 86.2591966,56.2110771 82.5019389,42.560614 C76.7438505,21.6465358 68.2713204,40.6959343 66.7844976,41.3236245" id="Fill-7" fill="url(#linearGradient-16)"></path>
                        <path d="M98.1154151,72.364286 C98.1154151,72.364286 111.318018,79.5747274 119.344941,80.467087 C124.722224,81.0631928 113.616853,87.0550356 102.568283,88.2480469 C91.5269139,89.4402585 87.2396481,88.9505002 84.8536114,85.0664171 C82.4671748,81.1811346 98.1154151,72.364286 98.1154151,72.364286" id="Fill-9" fill="#FF9BA0"></path>
                        <path d="M84.6107824,69.000746 L88.3900404,66.1957304 L89.9672646,65.1678376 C90.5180731,66.3716435 91.8484935,66.8753949 91.8484935,66.8753949 L88.6320441,68.4078386 L85.1907913,70.9373902 L81.8059393,75.7162317 L84.6107824,69.000746 Z" id="Fill-11" fill="#F8CA1C"></path>
                        <path d="M79.3357537,97.5620852 L50.0441039,96.9279981 L37.8651169,56.1725122 C37.8651169,56.1725122 29.9657956,31.5262759 45.105228,31.2092324 C60.2458605,30.8949875 77.8461308,33.6924068 77.8461308,33.6924068 C77.8461308,33.6924068 82.8962084,39.9037414 79.3357537,97.5620852" id="Fill-13" fill="url(#linearGradient-9)"></path>
                        <path d="M63.0056506,36.3820443 C63.0056506,36.3820443 76.2742544,62.0033994 72.5077965,90.3606042 C72.212192,92.5927026 69.8321554,94.1919134 69.8321554,94.1919134 L66.5665053,90.9966903 C66.5665053,90.9966903 66.8309094,58.9037292 63.0056506,36.3820443" id="Fill-15" fill="#4A90E2"></path>
                        <polygon id="Fill-17" fill="#F8CA1C" points="62.6288448 35.7419602 61.9084338 40.7934672 52.6054909 33.0708785 53.6831075 31.1846094"></polygon>
                        <polygon id="Fill-19" fill="#F8CA1C" points="65.1576837 32.7838202 66.5969058 34.0000199 66.677707 39.3573759 63.0056506 36.1573552"></polygon>
                        <path d="M74.7579956,12.7936859 C74.7391953,13.1750977 76.0936161,16.525844 76.3420199,17.1459379 C76.5932238,17.7664317 76.9400291,18.550045 76.8260274,18.7699365 C76.7108256,18.9890283 76.0736158,19.621916 75.7896114,19.8522023 C75.5040071,20.0808895 74.4207904,21.0380171 74.2359876,19.4388063 C74.0535848,17.8375966 74.7579956,12.7936859 74.7579956,12.7936859" id="Fill-21" fill="#FF9BA0"></path>
                        <path d="M58.8577853,10.7969658 C57.666967,10.7425926 56.6609515,11.661739 56.6077507,12.8475537 C56.5545499,14.040565 57.473364,15.0444695 58.6653823,15.1020411" id="Fill-23" fill="#E9D6B8"></path>
                        <polygon id="Fill-25" fill="#F8E71C" points="71.0057735 234.982029 78.5518893 234.982029 78.5518893 223.489701 71.0057735 223.489701"></polygon>
                        <polygon id="Fill-27" fill="#F8E71C" points="17.4049504 234.982029 23.5110441 234.982029 23.5110441 223.489701 17.4049504 223.489701"></polygon>
                        <path d="M71.4983052,238.098072 L77.0107898,238.098072 L77.0107898,236.425697 L79.4040266,238.098072 L93.29984,238.098072 C93.29984,238.098072 93.0582362,235.825194 83.7184928,235.46697 C81.320056,235.375416 79.6432302,232.115425 79.6432302,232.115425 C79.6432302,232.115425 78.4492119,231.037557 76.6507843,233.549917 C76.1851771,234.204793 71.1418997,232.951412 71.1418997,232.951412 C71.1418997,232.951412 70.6642924,236.303758 71.4983052,238.098072" id="Fill-28" fill="#081832"></path>
                        <path d="M78.4309112,96.3524471 L79.0873213,158.596128 L65.9239191,165.861742 C65.9239191,165.861742 58.0229978,151.01307 57.0373827,132.054827 C56.0485675,113.099782 78.4309112,96.3524471 78.4309112,96.3524471" id="Fill-29" fill="#000000"></path>
                        <path d="M78.1573326,96.6491007 L49.1912878,164.898218 L43.9260069,172.165431 L23.7144965,232.064269 L16.1967811,229.24606 C16.1967811,229.24606 13.648742,195.545892 21.5476633,182.273642 C29.4461846,169.00619 33.3926452,161.735778 33.3926452,161.735778 L50.8389131,94.7532363 L78.1573326,96.6491007 Z" id="Fill-30" fill="#2B2D38"></path>
                        <path d="M70.2669164,231.188301 C67.8844799,218.979927 62.8184021,196.273133 62.6375993,188.422208 C62.3095942,173.89018 64.6148296,163.77797 64.6148296,163.77797 L79.095452,158.721666 L78.9802502,231.188301 L70.2669164,231.188301 Z" id="Fill-31" fill="#000000"></path>
                        <path d="M24.3006563,240.144281 L20.570199,240.144281 L19.3941809,238.964464 L18.8881731,236.088683 L17.7033549,237.272898 L13.8048951,233.38042 C14.4837055,231.518538 17.1937471,229.486741 17.1937471,229.486741 C17.1937471,229.486741 19.8729883,233.936545 20.6638004,233.803011 C23.7158473,233.295661 23.8002486,234.905267 23.8002486,234.905267 C23.8002486,234.905267 22.6846314,238.377953 24.3006563,240.144281" id="Fill-32" fill="#081832"></path>
                        <path d="M20.6049995,235.883584 C21.3222105,236.68279 22.3162258,237.480796 23.4842437,237.523975 C32.8239871,237.883397 33.0627908,240.158274 33.0627908,240.158274 L20.6049995,240.158274 L20.6049995,235.883584 Z" id="Fill-33" fill="#081832"></path>
                        <path d="M113.679989,34.0256073 L110.904746,31.6659719 C110.904746,31.6659719 109.533125,30.6076942 108.388307,28.8453639 C107.24469,27.0798353 107.8983,25.3694794 109.377922,23.9585757 C110.860345,22.5504706 111.973162,22.3889504 111.973162,22.3889504 C111.973162,22.3889504 114.363999,23.4480277 114.062394,25.5853728 C113.75319,27.7199194 115.912023,32.4367914 115.09481,32.7782229 C114.274398,33.1176554 113.679989,34.0256073 113.679989,34.0256073" id="Fill-36" fill="#FF9BA0"></path>
                        <polygon id="Fill-37" fill="#FF9BA0" points="112.806415 22.819138 110.044373 19.8426071 107.349532 17.1915155 107.006326 17.9679323 108.655152 20.1160721 109.536365 24.606256 110.625982 24.0089508"></polygon>
                        <polygon id="Fill-38" fill="#FF9BA0" points="107.713937 21.1419658 104.744292 19.5903316 104.206283 20.244009 106.857924 22.3017934 108.779554 25.3239019 110.634782 23.9325885"></polygon>
                        <polygon id="Fill-39" fill="#FF9BA0" points="103.806277 21.589345 106.250715 22.6764085 107.972341 23.1749624 109.157959 24.7549826 108.052342 26.3278064 106.827524 24.5842669 103.852278 22.6048438"></polygon>
                        <polygon id="Fill-40" fill="#FF9BA0" points="103.406271 23.9881611 108.078743 25.1847705 108.844355 26.3625892 108.149144 27.483636 106.253515 26.1710838 103.740276 24.7569817"></polygon>
                        <path d="M116.463667,33.6081669 C114.949644,32.072125 115.284049,29.7912507 115.284049,29.7912507 C115.284049,29.7912507 115.969659,24.0864662 115.132446,23.1457304 C114.294434,22.2045949 113.771626,19.7669979 113.771626,19.7669979 C113.771626,19.7669979 113.055615,18.8574468 112.75121,21.1659075 C112.554007,22.6727639 112.838411,24.0232973 112.838411,24.0232973 C112.838411,24.0232973 111.295188,27.1365608 111.412789,28.1456628 C111.647593,30.2254364 115.395651,33.8820317 115.395651,33.8820317 C115.395651,33.8820317 116.65767,33.8048698 116.463667,33.6081669" id="Fill-41" fill="#FF9BA0"></path>
                        <path d="M75.2798754,4.33611756 C75.2798754,4.33611756 77.3483071,25.2561929 72.6266346,27.7129804 C72.4206315,27.8161294 69.0577798,27.9620574 67.2989528,29.5420776 C65.6437274,31.0341413 65.5713263,32.7137123 64.9853173,33.3761854 C64.7961144,33.591679 64.1141039,35.0009835 63.6864974,35.3759984 C61.90367,36.9352289 60.4592478,34.9422125 59.4488323,34.4848382 C56.9979946,33.3689889 54.4911562,32.6357508 54.609558,31.5722757 C54.73956,30.4072506 58.2708142,22.8105998 58.1416122,21.2449725 C57.7668065,16.6596355 52.8131304,8.18861623 60.8212534,3.03555942 C63.1592893,1.53230133 74.7126667,2.98838271 75.2798754,4.33611756" id="Fill-62" fill="#FF9BA0"></path>
                        <path d="M60.4603752,2.16818808 C64.3480349,-0.872311335 72.1609548,-0.0435203686 77.4850366,5.05436367 C77.4850366,5.05436367 77.2650332,6.29655061 75.4174048,7.30165456 C75.4174048,7.30165456 72.3193573,3.29922988 67.2700797,3.86335147 C61.9723984,4.45865767 65.6128543,7.02619051 64.3784353,8.31355516 C63.3404194,9.39622083 62.3680044,10.3153672 62.3680044,10.3153672 L61.5647921,13.2591144 L60.1755708,13.4114392 C60.1755708,13.4114392 59.4347594,10.2458015 58.7299486,11.1777416 C57.8739354,12.3119818 58.2499412,14.6844109 58.2695415,15.0222442 C58.2903418,15.3616767 58.3371425,15.9210006 58.17274,16.0153541 C58.041938,16.0877184 58.4167438,17.9084198 58.0187377,20.9857011 C57.3671277,20.9952963 56.5615153,20.0917423 56.1727093,18.1403053 C55.2958958,13.7512715 55.7195024,5.87915661 60.4603752,2.16818808" id="Fill-64" fill="#000000"></path>
                        <path d="M73.0058042,18.537811 C73.0058042,18.537811 75.5210428,17.9257131 75.7810468,17.9968779 C76.0422508,18.0652442 76.6826606,18.148803 76.6974609,18.4034773 C76.7138611,18.657352 76.3198551,19.3082307 75.0686359,20.002688 C74.7642312,20.1698055 74.9442339,19.5333197 73.0058042,18.537811" id="Fill-65" fill="#FF9BA0"></path>
                        <path d="M56.2055462,77.9615236 L56.9503576,79.2804726 C56.973558,79.3444411 57.0051585,79.4016128 57.0335589,79.4551864 L56.2903475,78.1354377 C56.257147,78.0834634 56.2307466,78.023493 56.2055462,77.9615236" id="Fill-71" fill="#9EA4A7"></path>
                        <g id="Group-85" transform="translate(23.405043, 101.949685)" fill="#A1A9AC">
                            <path d="M1.96763021,0.187027696 L2.7092416,1.50797577 C2.07603188,1.8110262 1.46762254,2.15485651 0.886413612,2.52307478 L0.143202199,1.20252652 C0.722011087,0.83390844 1.33122044,0.493276553 1.96763021,0.187027696" id="Fill-83"></path>
                        </g>
                        <g id="Group-104" transform="translate(58.205577, 72.364286)">
                            <mask id="mask-18" fill="white">
                                <use xlink:href="#path-17"></use>
                            </mask>
                            <g id="Clip-103"></g>
                            <path d="M22.8136303,0.223729583 L23.5584418,1.54147923 C23.7616449,1.90170145 23.9196473,2.28671144 24.0248489,2.70650426 L23.2792375,1.3871554 C23.1744359,0.967762379 23.0136334,0.583152196 22.8136303,0.223729583" id="Fill-102" fill="#9EA4A7" mask="url(#mask-18)"></path>
                        </g>
                        <g id="Group-153" transform="translate(23.805049, 117.941792)">
                            <mask id="mask-20" fill="white">
                                <use xlink:href="#path-19"></use>
                            </mask>
                            <g id="Clip-152"></g>
                            <path d="M0.23636363,0.321721221 L0.983575104,1.64186969 C1.04157599,1.74581838 1.08677669,1.85576412 1.11597714,1.97690434 L0.374365749,0.659554489 C0.341165239,0.535615657 0.295564539,0.424870313 0.23636363,0.321721221" id="Fill-151" fill="#9EA4A7" mask="url(#mask-20)"></path>
                        </g>
                        <g id="Group-156" transform="translate(23.805049, 117.941792)">
                            <mask id="mask-22" fill="white">
                                <use xlink:href="#path-21"></use>
                            </mask>
                            <g id="Clip-155"></g>
                            <path d="M0.374245747,0.659434549 L1.11585714,1.9767844 C1.1266573,2.00996802 1.13585744,2.04515065 1.14225754,2.07793447 C1.16225785,2.19187824 1.1654579,2.30422279 1.1654579,2.41816656 L0.419446441,1.09721849 C0.421846478,0.984074329 0.417046404,0.871729774 0.397446103,0.760984431 C0.387045943,0.725801794 0.381445857,0.692618171 0.374245747,0.659434549" id="Fill-154" fill="#A1A9AC" mask="url(#mask-22)"></path>
                        </g>
                        <g id="Group-159" transform="translate(23.805049, 117.941792)">
                            <mask id="mask-24" fill="white">
                                <use xlink:href="#path-23"></use>
                            </mask>
                            <g id="Clip-158"></g>
                            <polygon id="Fill-157" fill="#A6AEB1" mask="url(#mask-24)" points="0.419566443 1.09709855 1.16517789 2.41844642 1.16517789 2.48561327 0.419566443 1.16306599"></polygon>
                        </g>
                        <g id="Group-174" transform="translate(22.605030, 121.140214)">
                            <mask id="mask-26" fill="white">
                                <use xlink:href="#path-25"></use>
                            </mask>
                            <g id="Clip-173"></g>
                            <path d="M0.457047018,0.0140730545 L1.20345848,1.33462132 C1.18945827,1.3466154 1.17505804,1.35900929 1.15865779,1.37300238 L0.413046343,0.0548529284 C0.429446595,0.0412596371 0.443046803,0.0264669377 0.457047018,0.0140730545" id="Fill-172" fill="#AAB3B6" mask="url(#mask-26)"></path>
                        </g>
                        <path d="M35.2724247,115.725286 L36.0184362,117.042236 C35.4440274,116.592058 35.3940266,116.532488 35.351626,116.463722 L34.6052145,115.143173 C34.6480152,115.21114 34.6988159,115.27151 35.2724247,115.725286" id="Fill-179" fill="#959B9D"></path>
                        <path d="M36.4408427,115.776061 L37.1856541,117.09461 C37.0016513,117.086214 36.8780494,117.07502 36.7624476,117.05503 C36.5216439,117.010252 36.3240409,116.948682 36.1512382,116.859926 L35.4052268,115.542976 C35.5768294,115.624536 35.7728324,115.690903 36.0192362,115.73768 C36.134438,115.755671 36.2552398,115.768864 36.4408427,115.776061" id="Fill-182" fill="#F5A623"></path>
                        <path d="M37.0092514,115.942779 L37.7548629,117.263727 C37.6164607,117.275321 37.4780586,117.279319 37.3504567,117.275321 L36.6052452,115.956772 C36.7340472,115.96037 36.8732493,115.956772 37.0092514,115.942779" id="Fill-185" fill="#F5A623"></path>
                        <g id="Group" transform="translate(0.239517, 114.855407)">
                            <path d="M42.0845987,12.0542525 C42.0845987,13.0907709 41.1177501,13.9315073 39.9235092,13.9315073 L26.8310265,13.9315073 C25.6374757,13.9315073 24.670282,13.0907709 24.670282,12.0542525 L24.670282,4.77826545 C24.670282,3.74261329 25.6374757,2.90274314 26.8310265,2.90274314 L39.9235092,2.90274314 C41.1177501,2.90274314 42.0845987,3.74261329 42.0845987,4.77826545 L42.0845987,12.0542525 Z M42.6282482,0 L24.0633117,0 C22.7953712,0 21.7678959,1.54621289 21.7678959,2.61265878 L21.7678959,13.9074522 C21.7678959,14.9738981 22.7953712,15.8376569 24.0633117,15.8376569 L42.6282482,15.8376569 C43.8961887,15.8376569 44.923664,14.9738981 44.923664,13.9074522 L44.923664,2.61265878 C44.923664,1.54621289 43.8961887,0 42.6282482,0 Z" id="Fill-1" fill="#657786"></path>
                            <polygon id="Fill-3" fill="#4D94E5" points="1.24870894 47.5347979 64.9951323 47.5347979 64.9951323 7.00745543 1.24870894 7.00745543"></polygon>
                            <polygon id="Fill-5" fill="#70A9EA" points="0 6.61013299 0 21.3495685 33.1216401 24.6316245 66.2432803 21.6119513 66.2432803 6.61013299"></polygon>
                            <polygon id="Fill-6" fill="#D0D2D3" points="30.6006617 28.3291766 37.3496362 28.3291766 37.3496362 20.9336181 30.6006617 20.9336181"></polygon>
                            <path d="M35.2677254,23.7932492 C35.2677254,24.5150857 34.6893701,25.0994836 33.9769441,25.0994836 C33.2633961,25.0994836 32.6850408,24.5150857 32.6850408,23.7932492 C32.6850408,23.0714127 33.2633961,22.485311 33.9769441,22.485311 C34.6893701,22.485311 35.2677254,23.0714127 35.2677254,23.7932492" id="Fill-7" fill="#221F1F"></path>
                            <polygon id="Fill-8" fill="#221F1F" points="33.3600504 26.4601255 34.6239054 26.4601255 34.6239054 23.9305742 33.3600504 23.9305742"></polygon>
                        </g>
                        <path d="M20.4517972,82.6544075 L33.1607923,117.954186 C33.1607923,117.954186 30.3951498,118.79737 28.7887252,117.370874 C24.4310583,113.499984 16.8473418,102.963184 14.1997011,97.1900337 C10.5776455,89.2915319 8.60481523,80.7601424 8.60481523,80.7601424 L20.4517972,82.6544075 Z" id="Fill-194" fill="#FF9BA0"></path>
                        <path d="M29.1297453,117.980973 C29.9277575,119.460243 35.0054355,120.908328 35.0054355,120.908328 L38.6266911,116.842335 L36.3218557,116.842335 L34.6762305,113.14416 L29.7377546,115.040424 C29.7377546,115.040424 28.6433378,117.075819 29.1297453,117.980973" id="Fill-196" fill="#FF9BA0"></path>
                        <path d="M39.7052928,54.6872486 L22.59143,80.9099069 L20.2861946,81.2277501 L20.9450047,83.4390587 L8.54841437,82.4879281 L5.80477223,71.7476288 L29.8303412,36.3618927 C29.8303412,36.3618927 32.3955806,34.0338417 36.979251,32.4522223 C40.2277008,31.330376 47.6370146,44.3279612 42.6425379,50.8139602 C41.1565151,52.743408 40.0060974,54.179899 39.7052928,54.6872486" id="Fill-198" fill="url(#linearGradient-9)"></path>
                        <path d="M9.80483366,75.9625101 C9.80483366,75.9625101 17.4677513,79.640295 21.5262137,81.4114209 L20.5221982,81.5513519 L21.1806083,83.7626605 L16.8985426,83.4004393 L10.8920504,81.9823392 L10.5632453,79.4435921 L12.4240739,79.4435921 L9.80483366,75.9625101 Z" id="Fill-200" fill="#F8CA1C"></path>
                        <path d="M172.654845,4.70592051 C170.392103,3.03641615 170.004781,1.68926028 171.492879,0.664452915 C173.725025,-0.872758135 189.357617,0.0512125711 188.90395,5.62167084 C188.450283,11.1921291 194.1453,17.8200571 181.712392,24.1796718 C173.423787,28.419415 170.404604,21.9281645 172.654845,4.70592051 Z" id="Path-2" fill="#000000"></path>
                        <path d="M170.801706,2.79861879 L166.824445,7.93888192 L166.862045,9.88112336 L163.407192,14.5556164 L164.944416,17.2302963 L164.224405,25.3922681 C164.224405,25.3922681 163.623596,29.7837008 167.744459,28.1812917 L171.868522,26.5784827 C171.868522,26.5784827 175.343376,37.529478 172.941739,39.4801153 C170.540502,41.4303528 168.840476,43.6496575 169.817691,44.8586609 C170.707304,45.9613167 173.062541,45.1537152 175.481778,44.8870468 C179.788644,44.4108819 182.646288,45.2252799 184.490716,45.3132365 C185.826737,45.3780045 183.977108,44.574801 183.610303,41.8213599 C183.247897,39.0943057 180.981062,22.9766603 180.981062,22.9766603 C180.981062,22.9766603 181.711873,23.2681165 182.731489,22.8287333 C183.751905,22.3913492 188.333575,18.8758842 186.808352,16.8488846 C185.283128,14.8210853 181.946677,15.7222406 180.84226,17.6484899 C179.735443,19.5739397 177.713812,17.516555 178.20582,13.3194264 C178.696627,9.12109845 187.087156,6.66551036 177.519409,5.37334809 C171.102911,4.50617606 170.801706,2.79861879 170.801706,2.79861879" id="Fill-5" fill="#FF9BA0"></path>
                        <polygon id="Fill-25-Copy" fill="#F8E71C" transform="translate(167.634257, 234.433300) scale(-1, 1) translate(-167.634257, -234.433300) " points="163.861199 240.179464 171.407315 240.179464 171.407315 228.687136 163.861199 228.687136"></polygon>
                        <polygon id="Fill-27-Copy" fill="#F8E71C" transform="translate(221.955091, 234.433300) scale(-1, 1) translate(-221.955091, -234.433300) " points="218.902045 240.179464 225.008138 240.179464 225.008138 228.687136 218.902045 228.687136"></polygon>
                        <path d="M149.60578,243.295507 L155.118265,243.295507 L155.118265,241.623132 L157.511502,243.295507 L171.407315,243.295507 C171.407315,243.295507 171.165712,241.022629 161.825968,240.664405 C159.427531,240.572851 157.750706,237.312859 157.750706,237.312859 C157.750706,237.312859 156.556687,236.234991 154.75826,238.747352 C154.292652,239.402228 149.249375,238.148847 149.249375,238.148847 C149.249375,238.148847 148.771768,241.501192 149.60578,243.295507" id="Fill-28-Copy" fill="#081832" transform="translate(160.260282, 240.189250) scale(-1, 1) translate(-160.260282, -240.189250) "></path>
                        <path d="M184.75112,101.549882 L185.40753,163.793563 L172.244128,171.059177 C172.244128,171.059177 164.343207,156.210505 163.357592,137.252262 C162.368776,118.297217 184.75112,101.549882 184.75112,101.549882" id="Fill-29-Copy" fill="#000000" transform="translate(174.366649, 136.304529) scale(-1, 1) translate(-174.366649, -136.304529) "></path>
                        <path d="M226.608163,101.846536 L197.642118,170.095653 L192.376837,177.362866 L172.165327,237.261704 L164.647611,234.443495 C164.647611,234.443495 162.099572,200.743327 169.998494,187.471077 C177.897015,174.203625 181.843475,166.933213 181.843475,166.933213 L199.289743,99.9506712 L226.608163,101.846536 Z" id="Fill-30-Copy" fill="#2B2D38" transform="translate(195.431960, 168.606188) scale(-1, 1) translate(-195.431960, -168.606188) "></path>
                        <path d="M170.978909,236.385736 C168.596472,224.177362 163.530394,201.470568 163.349591,193.619643 C163.021586,179.087615 165.326822,168.975405 165.326822,168.975405 L179.807444,163.919101 L179.692242,236.385736 L170.978909,236.385736 Z" id="Fill-31-Copy" fill="#000000" transform="translate(171.562540, 200.152419) scale(-1, 1) translate(-171.562540, -200.152419) "></path>
                        <path d="M228.608194,245.341716 L224.877736,245.341716 L223.701718,244.161899 L223.19571,241.286118 L222.010892,242.470333 L218.112432,238.577854 C218.791243,236.715973 221.501284,234.684176 221.501284,234.684176 C221.501284,234.684176 224.180526,239.13398 224.971338,239.000446 C228.023385,238.493096 228.107786,240.102702 228.107786,240.102702 C228.107786,240.102702 226.992169,243.575388 228.608194,245.341716" id="Fill-32-Copy" fill="#081832" transform="translate(223.360313, 240.012946) scale(-1, 1) translate(-223.360313, -240.012946) "></path>
                        <path d="M209.350298,241.081019 C210.067509,241.880225 211.061524,242.678231 212.229542,242.721409 C221.569286,243.080832 221.808089,245.355709 221.808089,245.355709 L209.350298,245.355709 L209.350298,241.081019 Z" id="Fill-33-Copy" fill="#081832" transform="translate(215.579194, 243.218364) scale(-1, 1) translate(-215.579194, -243.218364) "></path>
                        <path d="M118.111578,81.0887802 L126.953314,75.9625101 L132.652601,76.6153879 C132.652601,76.6153879 133.298611,77.9499293 131.352981,78.9258476 C129.407352,79.899767 126.953314,80.19762 126.953314,80.19762 L123.164856,85.8428339 C123.164856,85.8428339 126.866913,88.0313538 127.846928,87.5519904 C128.827343,87.0698283 132.677002,85.2479275 132.677002,85.2479275 C132.677002,85.2479275 130.447768,90.0019812 128.069331,90.0019812 C125.692494,90.0019812 123.164856,90.0019812 121.381228,89.7053276 C119.597601,89.4078744 119.001992,84.3571671 117.219964,83.4660069 C115.435537,82.5736473 118.111578,81.0887802 118.111578,81.0887802" id="Fill-34" fill="#FF9BA0"></path>
                        <path d="M135.622894,48.481273 L113.640957,28.3859906 C113.640957,28.3859906 112.178934,30.1511195 112.730943,31.7659225 C114.237766,36.1377649 120.34826,42.6733394 123.771513,46.375912 C128.453184,51.437414 134.453277,55.5002089 134.453277,55.5002089 L135.622894,48.481273 Z" id="Fill-35" fill="#FF9BA0"></path>
                        <path d="M151.825968,45.4478044 L142.244621,47.2593104 L133.955568,45.8996189 L131.406701,55.7057168 L138.698219,58.3524574 L172.542286,58.9063622 C172.542286,58.9063622 177.583563,51.0742276 180.052001,41.5657203 C181.841629,34.6747212 164.040555,42.7063574 162.014524,42.9930159 L151.825968,45.4478044 Z" id="Fill-42" fill="#F8CA1C"></path>
                        <path d="M159.758736,81.5597477 L132.206713,82.373746 C132.206713,82.373746 152.623827,94.6568839 160.038741,88.4635405 C167.458055,82.2669987 159.758736,81.5597477 159.758736,81.5597477" id="Fill-43" fill="#FF9BA0"></path>
                        <path d="M174.105332,37.3242318 L182.621062,34.3830309 L193.549843,42.5079273 C193.549843,42.5079273 197.843659,54.5027887 196.784267,59.4409765 C195.724876,64.3791644 191.953724,101.34061 191.953724,101.34061 L162.87359,101.94578 L158.607119,59.4707343 C161.759417,47.2723775 166.543349,39.6703123 172.958914,36.6645389 L174.105332,37.3242318 Z" id="Fill-48" fill="#F8CA1C"></path>
                        <polygon id="Fill-51" fill="#FF9BA0" points="123.728983 87.0070593 126.364624 87.9318029 137.18839 84.367562 132.956325 76.7621155 131.538303 79.00221 127.757045 78.8506847 123.006572 85.4914073"></polygon>
                        <polygon id="Fill-53" fill="#F8E71C" points="173.590549 38.2947004 173.00734 43.7300179 184.863522 37.0773012 183.495501 33.1836229"></polygon>
                        <polygon id="Fill-54" fill="#F8E71C" points="172.949339 36.781847 173.532548 38.3346806 171.201312 43.3817897 171.007309 38.917593"></polygon>
                        <path d="M163.407192,38.7808604 C163.407192,38.7808604 176.675796,64.4022155 172.909338,92.7594203 C172.613734,94.9915187 170.233697,96.5907295 170.233697,96.5907295 L166.968047,93.3955064 C166.968047,93.3955064 167.232451,61.3025453 163.407192,38.7808604" id="Fill-15-Copy" fill="#4A90E2" transform="translate(168.494820, 67.685795) scale(-1, 1) translate(-168.494820, -67.685795) "></path>
                        <path d="M194.144571,55.6385407 C188.89009,71.9209048 177.913521,85.3346847 175.84589,88.0189599 C173.779858,90.7052342 166.877752,96.28568 161.748473,95.0574862 C158.512023,94.2834682 158.207113,92.2646208 158.207113,92.2646208 L160.094642,81.7596491 L159.797243,81.7268653 L161.689272,81.3702413 C161.689272,81.3702413 168.359775,70.7934612 173.93146,60.4925451 C179.506346,50.1952271 190.800519,42.7788873 190.800519,42.7788873 C190.800519,42.7788873 197.233418,46.0872545 194.144571,55.6385407 Z" id="Fill-56" fill="url(#linearGradient-9)"></path>
                        <path d="M152.832307,84.3271987 C152.832307,84.3271987 160.495225,88.0049836 164.553687,89.7761095 L163.549672,89.9160405 L164.208082,92.1273491 L159.926016,91.7651279 L153.919524,90.3470277 L153.590719,87.8082807 L155.451548,87.8082807 L152.832307,84.3271987 Z" id="Fill-200-Copy" fill="#F8CA1C" transform="translate(158.692997, 88.227274) rotate(-105.000000) translate(-158.692997, -88.227274) "></path>
                        <path d="M129.714523,47.8384438 C129.714523,47.8384438 136.928184,51.7386173 140.748709,53.6168398 L139.803556,53.7652321 L140.423365,56.1102543 L136.392346,55.7261303 L130.737999,54.2222803 L130.428471,51.5300201 L132.180204,51.5300201 L129.714523,47.8384438 Z" id="Fill-200-Copy-2" fill="#F8CA1C" transform="translate(135.231616, 51.974349) rotate(-105.000000) translate(-135.231616, -51.974349) "></path>
                        <path d="M160.79973,81.8225172 C160.708844,80.3516285 159.950629,79.9904787 158.525086,80.7390675 C157.099543,81.4876564 156.253697,81.5126441 155.987547,80.8140305 L154.207051,93.4527148 L156.54029,95.3517776 L159.057126,94.201564 L160.79973,81.8225172 Z" id="Path-3" fill="#FFC800"></path>
                        <path d="M136.286539,45.162067 C136.195652,43.6911784 135.437437,43.3300285 134.011895,44.0786174 C132.586352,44.8272062 131.740506,44.8521939 131.474356,44.1535804 L129.69386,56.7922646 L132.027099,58.6913274 L134.543934,57.5411138 L136.286539,45.162067 Z" id="Path-3-Copy" fill="#FFC800" transform="translate(132.990199, 51.195608) rotate(12.000000) translate(-132.990199, -51.195608) "></path>
                    </g>
                </g>
                <g id="Group-19-Copy" transform="translate(36.279826, 2.902743)">
                    <g id="Oval-4">
                        <use fill="black" fill-opacity="1" filter="url(#filter-28)" xlink:href="#path-27"></use>
                        <use fill="#F5EF93" fill-rule="evenodd" xlink:href="#path-27"></use>
                    </g>
                    <ellipse id="Oval-4-Copy" fill="#FFFFFF" cx="13.7863341" cy="13.7880299" rx="7.98156182" ry="7.98254364"></ellipse>
                </g>
                <g id="Group-19-Copy-2" transform="translate(0.000000, 520.921131)">
                    <g id="Oval-4">
                        <use fill="black" fill-opacity="1" filter="url(#filter-30)" xlink:href="#path-29"></use>
                        <use fill="#63C8B1" fill-rule="evenodd" xlink:href="#path-29"></use>
                    </g>
                    <g id="Path-5" stroke-linecap="round">
                        <use fill="black" fill-opacity="1" filter="url(#filter-32)" xlink:href="#path-31"></use>
                        <use stroke="#FFFFFF" stroke-width="4.356" xlink:href="#path-31"></use>
                    </g>
                </g>
            </g>
            <ellipse id="Oval-5" fill="#E8F5FF" cx="50.0661605" cy="84.9052369" rx="13.7863341" ry="13.7880299"></ellipse>
            <ellipse id="Oval-5-Copy-4" fill="#E8F5FF" cx="379.486985" cy="340.346633" rx="13.7863341" ry="13.7880299"></ellipse>
            <ellipse id="Oval-5-Copy-7" fill="#E8F5FF" cx="550.727766" cy="142.9601" rx="13.7863341" ry="13.7880299"></ellipse>
            <ellipse id="Oval-5-Copy-8" fill="#E8F5FF" cx="581.20282" cy="434.685786" rx="7.98156182" ry="7.98254364"></ellipse>
            <ellipse id="Oval-5-Copy-5" fill="#E8F5FF" cx="37.005423" cy="456.456359" rx="13.7863341" ry="13.7880299"></ellipse>
            <ellipse id="Oval-5-Copy-6" fill="url(#linearGradient-10)" opacity="0.131417411" cx="361.347072" cy="526.84788" rx="18.8655098" ry="18.8678304"></ellipse>
            <ellipse id="Oval-5-Copy" fill="#E8F5FF" cx="95.7787419" cy="34.8329177" rx="10.1583514" ry="10.159601"></ellipse>
            <ellipse id="Oval-5-Copy-2" fill="#E8F5FF" cx="251.781996" cy="234.396509" rx="5.0791757" ry="5.0798005"></ellipse>
            <ellipse id="Oval-5-Copy-3" fill="#E8F5FF" cx="360.621475" cy="93.6134663" rx="5.0791757" ry="5.0798005"></ellipse>
        </g>
    </g>
</svg>